<?xml version="1.0" encoding="UTF-8"?>
<svg id="heart" xmlns="http://www.w3.org/2000/svg" viewBox="0 0 450.46 361.92">
  <defs>
    <style>
      .cls-1 {
        fill: #c47a7c;
      }

      .cls-1, .cls-2 {
        stroke-width: 0px;
      }

      .cls-2 {
        fill: #8b4250;
      }
    </style>
  </defs>
  <g id="_darkpink-heart_" data-name="&amp;lt;darkpink-heart&amp;gt;">
    <path class="cls-2" d="M272.85,141.35c-.12-3.59-.59-7.15-1.43-10.65-5.67-23.7-19.97-68.07-55.62-97.71C152.62-19.51,43.44-8.51,10.26,69.98c-27.06,64.01-.21,166.15,75.97,210.17,1.06.61,2.11,1.25,3.12,1.93l105.22,70.61c36.44,24.45,85.25-2.63,83.79-46.49l-5.51-164.84Z"/>
    <path class="cls-2" d="M177.61,140.64c.12-3.59.59-7.15,1.43-10.65,5.67-23.7,19.97-68.07,55.62-97.71,63.18-52.51,172.36-41.51,205.54,36.98,27.06,64.01.21,166.15-75.97,210.17-1.06.61-2.11,1.25-3.12,1.93l-105.22,70.61c-36.44,24.45-85.25-2.63-83.79-46.49l5.51-164.84Z"/>
  </g>
  <g id="_lightpink-heart_" data-name="&amp;lt;lightpink-heart&amp;gt;">
    <path class="cls-1" d="M257.2,153.92c-.08-2.32-.38-4.63-.92-6.88-3.67-15.32-12.91-44.01-35.96-63.17-40.85-33.95-111.44-26.84-132.89,23.91-17.49,41.38-.14,107.43,49.12,135.88.69.4,1.36.81,2.02,1.25l68.03,45.65c23.56,15.81,55.12-1.7,54.17-30.06l-3.56-106.58Z"/>
    <path class="cls-1" d="M195.62,153.46c.08-2.32.38-4.63.92-6.88,3.67-15.32,12.91-44.01,35.96-63.17,40.85-33.95,111.44-26.84,132.89,23.91,17.49,41.38.14,107.43-49.12,135.88-.69.4-1.36.81-2.02,1.25l-68.03,45.65c-23.56,15.81-55.12-1.7-54.17-30.06l3.56-106.58Z"/>
  </g>
</svg>