<?xml version="1.0" encoding="UTF-8"?>
<svg id="star-pulse" xmlns="http://www.w3.org/2000/svg" viewBox="0 0 507.08 488.52">
  <defs>
    <style>
      .cls-1 {
        fill: #8f4c29;
      }

      .cls-1, .cls-2, .cls-3, .cls-4 {
        stroke-width: 0px;
      }

      .cls-2 {
        fill: #b78456;
      }

      .cls-3 {
        fill: #421f0c;
      }

      .cls-4 {
        fill: #e5cec9;
      }
    </style>
  </defs>
  <path id="_star-4_" data-name="&amp;lt;star-4&amp;gt;" class="cls-1" d="M345.43,480.86l-63.05-32.92c-17.65-9.22-38.71-9.16-56.31.16l-62.87,33.27c-44.32,23.46-96.3-14.09-87.96-63.54l11.83-70.14c3.31-19.64-3.25-39.64-17.55-53.5l-51.07-49.51c-36.01-34.9-16.36-95.94,33.25-103.29l70.36-10.42c19.7-2.92,36.7-15.34,45.46-33.22l31.3-63.87c22.07-45.03,86.19-45.21,108.51-.3l31.65,63.7c8.86,17.83,25.93,30.16,45.64,32.97l70.42,10.03c49.64,7.07,69.63,68,33.82,103.1l-50.8,49.79c-14.22,13.94-20.67,33.98-17.25,53.6l12.22,70.07c8.61,49.4-43.16,87.23-87.61,64.02Z"/>
  <path id="_star-3_" data-name="&amp;lt;star-3&amp;gt;" class="cls-2" d="M334.92,455.65l-56.2-29.35c-15.73-8.22-34.5-8.16-50.19.14l-56.04,29.66c-39.51,20.91-85.84-12.56-78.41-56.64l10.55-62.52c2.95-17.5-2.9-35.34-15.64-47.69l-45.53-44.13c-32.1-31.11-14.58-85.52,29.64-92.07l62.72-9.29c17.56-2.6,32.71-13.68,40.53-29.62l27.9-56.93c19.67-40.14,76.83-40.3,96.73-.27l28.22,56.78c7.9,15.9,23.12,26.89,40.69,29.39l62.77,8.94c44.25,6.31,62.07,60.62,30.14,91.91l-45.28,44.38c-12.68,12.43-18.43,30.29-15.38,47.78l10.89,62.46c7.68,44.04-38.47,77.76-78.1,57.07Z"/>
  <path id="_star-2_" data-name="&amp;lt;star-2&amp;gt;" class="cls-3" d="M322.81,428.08l-49.3-24.88c-13.8-6.97-30.41-6.65-44.4.84l-50,26.77c-35.25,18.87-75.76-9.76-68.55-48.45l10.23-54.89c2.86-15.37-2.05-30.9-13.15-41.53l-39.64-37.98c-27.94-26.78-11.67-74.66,27.54-81.03l55.62-9.04c15.57-2.53,29.14-12.44,36.28-26.51l25.5-50.25c17.98-35.42,68.55-36.38,85.57-1.63l24.14,49.3c6.76,13.8,20.06,23.2,35.57,25.14l55.4,6.93c39.06,4.88,54.03,52.17,25.34,80.03l-40.7,39.51c-11.39,11.06-16.74,26.79-14.29,42.05l8.73,54.53c6.16,38.44-35.15,68.63-69.91,51.09Z"/>
  <path id="_star-1_" data-name="&amp;lt;star-1&amp;gt;" class="cls-4" d="M311.64,397.83l-40.65-20.52c-11.38-5.74-25.07-5.48-36.61.7l-41.23,22.07c-29.07,15.56-62.47-8.05-56.52-39.95l8.43-45.25c2.36-12.67-1.69-25.47-10.84-34.24l-32.68-31.31c-23.04-22.08-9.62-61.56,22.71-66.81l45.86-7.45c12.84-2.09,24.02-10.26,29.91-21.86l21.03-41.43c14.83-29.21,56.52-30,70.55-1.34l19.91,40.65c5.57,11.38,16.54,19.13,29.33,20.73l45.68,5.71c32.2,4.03,44.55,43.02,20.89,65.98l-33.55,32.57c-9.39,9.12-13.8,22.08-11.78,34.67l7.2,44.96c5.08,31.7-28.99,56.59-57.64,42.12Z"/>
</svg>