<?xml version="1.0" encoding="UTF-8"?>
<svg id="star-stack" xmlns="http://www.w3.org/2000/svg" viewBox="0 0 507.08 1209.09">
  <defs>
    <style>
      .cls-1 {
        fill: #f7ceaf;
      }

      .cls-1, .cls-2, .cls-3, .cls-4, .cls-5, .cls-6 {
        stroke-width: 0px;
      }

      .cls-2 {
        fill: #8f4c29;
      }

      .cls-3 {
        fill: #6a3d0c;
      }

      .cls-4 {
        fill: #b78456;
      }

      .cls-5 {
        fill: #421f0c;
      }

      .cls-6 {
        fill: #e5cec9;
      }
    </style>
  </defs>
  <g id="_large-star_" data-name="&amp;lt;large-star&amp;gt;">
    <path id="_star-4_" data-name="&amp;lt;star-4&amp;gt;" class="cls-2" d="M345.43,480.86l-63.05-32.92c-17.65-9.22-38.71-9.16-56.31.16l-62.87,33.27c-44.32,23.46-96.3-14.09-87.96-63.54l11.83-70.14c3.31-19.64-3.25-39.64-17.55-53.5l-51.07-49.51c-36.01-34.9-16.36-95.94,33.25-103.29l70.36-10.42c19.7-2.92,36.7-15.34,45.46-33.22l31.3-63.87c22.07-45.03,86.19-45.21,108.51-.3l31.65,63.7c8.86,17.83,25.93,30.16,45.64,32.97l70.42,10.03c49.64,7.07,69.63,68,33.82,103.1l-50.8,49.79c-14.22,13.94-20.67,33.98-17.25,53.6l12.22,70.07c8.61,49.4-43.16,87.23-87.61,64.02Z"/>
    <path id="_star-3_" data-name="&amp;lt;star-3&amp;gt;" class="cls-4" d="M334.92,455.65l-56.2-29.35c-15.73-8.22-34.5-8.16-50.19.14l-56.04,29.66c-39.51,20.91-85.84-12.56-78.41-56.64l10.55-62.52c2.95-17.5-2.9-35.34-15.64-47.69l-45.53-44.13c-32.1-31.11-14.58-85.52,29.64-92.07l62.72-9.29c17.56-2.6,32.71-13.68,40.53-29.62l27.9-56.93c19.67-40.14,76.83-40.3,96.73-.27l28.22,56.78c7.9,15.9,23.12,26.89,40.69,29.39l62.77,8.94c44.25,6.31,62.07,60.62,30.14,91.91l-45.28,44.38c-12.68,12.43-18.43,30.29-15.38,47.78l10.89,62.46c7.68,44.04-38.47,77.76-78.1,57.07Z"/>
  </g>
  <g id="_medium-star_" data-name="&amp;lt;medium-star&amp;gt;">
    <path id="_star-2_" data-name="&amp;lt;star-2&amp;gt;" class="cls-5" d="M318.91,857.83l-49.3-24.88c-13.8-6.97-30.41-6.65-44.4.84l-50,26.77c-35.25,18.87-75.76-9.76-68.55-48.45l10.23-54.89c2.86-15.37-2.05-30.9-13.15-41.53l-39.64-37.98c-27.94-26.78-11.67-74.66,27.54-81.03l55.62-9.04c15.57-2.53,29.14-12.44,36.28-26.51l25.5-50.25c17.98-35.42,68.55-36.38,85.57-1.63l24.14,49.3c6.76,13.8,20.06,23.2,35.57,25.14l55.4,6.93c39.06,4.88,54.03,52.17,25.34,80.03l-40.7,39.51c-11.39,11.06-16.74,26.79-14.29,42.05l8.73,54.53c6.16,38.44-35.15,68.63-69.91,51.09Z"/>
    <path id="_star-1_" data-name="&amp;lt;star-1&amp;gt;" class="cls-6" d="M307.74,827.59l-40.65-20.52c-11.38-5.74-25.07-5.48-36.61.7l-41.23,22.07c-29.07,15.56-62.47-8.05-56.52-39.95l8.43-45.25c2.36-12.67-1.69-25.47-10.84-34.24l-32.68-31.31c-23.04-22.08-9.62-61.56,22.71-66.81l45.86-7.45c12.84-2.09,24.02-10.26,29.91-21.86l21.03-41.43c14.83-29.21,56.52-30,70.55-1.34l19.91,40.65c5.57,11.38,16.54,19.13,29.33,20.73l45.68,5.71c32.2,4.03,44.55,43.02,20.89,65.98l-33.55,32.57c-9.39,9.12-13.8,22.08-11.78,34.67l7.2,44.96c5.08,31.7-28.99,56.59-57.64,42.12Z"/>
  </g>
  <g id="_small-star_" data-name="&amp;lt;small-star&amp;gt;">
    <path id="_star-2_-2" data-name="&amp;lt;star-2&amp;gt;" class="cls-3" d="M308.93,1201.72l-41.8-21.1c-11.7-5.91-25.78-5.64-37.65.72l-42.4,22.7c-29.89,16-64.24-8.27-58.12-41.08l8.67-46.54c2.43-13.03-1.74-26.2-11.15-35.21l-33.61-32.2c-23.69-22.7-9.89-63.31,23.35-68.71l47.16-7.66c13.2-2.15,24.71-10.55,30.76-22.48l21.63-42.6c15.25-30.04,58.12-30.85,72.56-1.38l20.47,41.8c5.73,11.7,17.01,19.68,30.16,21.32l46.98,5.87c33.12,4.14,45.82,44.24,21.49,67.86l-34.51,33.5c-9.66,9.38-14.19,22.71-12.12,35.66l7.41,46.23c5.22,32.59-29.81,58.19-59.28,43.32Z"/>
    <path id="_star-1_-2" data-name="&amp;lt;star-1&amp;gt;" class="cls-1" d="M299.46,1176.07l-34.46-17.4c-9.65-4.87-21.26-4.65-31.04.59l-34.96,18.72c-24.65,13.2-52.97-6.82-47.92-33.88l7.15-38.37c2-10.74-1.44-21.6-9.19-29.03l-27.71-26.55c-19.54-18.72-8.16-52.2,19.26-56.65l38.88-6.32c10.89-1.77,20.37-8.7,25.36-18.53l17.83-35.13c12.57-24.77,47.92-25.44,59.82-1.14l16.88,34.47c4.73,9.65,14.03,16.22,24.87,17.58l38.73,4.84c27.31,3.41,37.78,36.48,17.72,55.95l-28.45,27.62c-7.97,7.73-11.7,18.73-9.99,29.4l6.11,38.12c4.31,26.88-24.58,47.98-48.87,35.72Z"/>
  </g>
</svg>