<?xml version="1.0" encoding="UTF-8"?>
<svg id="starflower" xmlns="http://www.w3.org/2000/svg" viewBox="0 0 507.08 495">
  <defs>
    <style>
      .cls-1 {
        fill: #8f4c29;
      }

      .cls-1, .cls-2 {
        stroke-width: 0px;
      }

      .cls-2 {
        fill: #b78456;
      }
    </style>
  </defs>
  <path id="_darkbrown-star_" data-name="&amp;lt;darkbrown-star&amp;gt;" class="cls-1" d="M345.43,480.86l-63.05-32.92c-17.65-9.22-38.71-9.16-56.31.16l-62.87,33.27c-44.32,23.46-96.3-14.09-87.96-63.54l11.83-70.14c3.31-19.64-3.25-39.64-17.55-53.5l-51.07-49.51c-36.01-34.9-16.36-95.94,33.25-103.29l70.36-10.42c19.7-2.92,36.7-15.34,45.46-33.22l31.3-63.87c22.07-45.03,86.19-45.21,108.51-.3l31.65,63.7c8.86,17.83,25.93,30.16,45.64,32.97l70.42,10.03c49.64,7.07,69.63,68,33.82,103.1l-50.8,49.79c-14.22,13.94-20.67,33.98-17.25,53.6l12.22,70.07c8.61,49.4-43.16,87.23-87.61,64.02Z"/>
  <path id="_lightbrown-star_" data-name="&amp;lt;lightbrown-star&amp;gt;" class="cls-2" d="M169.08,66.35l56.2,29.35c15.73,8.22,34.5,8.16,50.19-.14l56.04-29.66c39.51-20.91,85.84,12.56,78.41,56.64l-10.55,62.52c-2.95,17.5,2.9,35.34,15.64,47.69l45.53,44.13c32.1,31.11,14.58,85.52-29.64,92.07l-62.72,9.29c-17.56,2.6-32.71,13.68-40.53,29.62l-27.9,56.93c-19.67,40.14-76.83,40.3-96.73.27l-28.22-56.78c-7.9-15.9-23.12-26.89-40.69-29.39l-62.77-8.94c-44.25-6.31-62.07-60.62-30.14-91.91l45.28-44.38c12.68-12.43,18.43-30.29,15.38-47.78l-10.89-62.46c-7.68-44.04,38.47-77.76,78.1-57.07Z"/>
  <circle id="_center_" data-name="&amp;lt;center&amp;gt;" class="cls-1" cx="251.5" cy="252.5" r="72.5"/>
</svg>