<?xml version="1.0" encoding="UTF-8"?>
<svg id="star-cluster" xmlns="http://www.w3.org/2000/svg" viewBox="0 0 974.49 506.69">
  <defs>
    <style>
      .cls-1 {
        fill: #8f4c29;
      }

      .cls-1, .cls-2, .cls-3, .cls-4 {
        stroke-width: 0px;
      }

      .cls-2 {
        fill: #b78456;
      }

      .cls-3 {
        fill: #421f0c;
      }

      .cls-4 {
        fill: #e5cec9;
      }
    </style>
  </defs>
  <path id="_star-2_" data-name="&amp;lt;star-2&amp;gt;" class="cls-3" d="M726.26,111.56l6.22,54.87c1.74,15.36,11.11,29.07,25.06,36.67l49.81,27.13c35.11,19.13,33.38,68.71-2.93,83.89l-51.51,21.54c-14.42,6.03-24.71,18.66-27.52,33.77l-10.03,53.97c-7.07,38.05-56.04,50.7-82.87,21.4l-38.06-41.56c-10.65-11.63-26.38-17.54-42.06-15.8l-56,6.22c-39.48,4.39-68.01-37.37-48.28-70.67l27.99-47.22c7.84-13.22,8.4-29.5,1.52-43.53l-24.59-50.13c-17.33-35.34,14-73.79,53.03-65.07l55.35,12.37c15.5,3.46,31.58-.69,43-11.11l40.81-37.2c28.77-26.23,76.67-8.24,81.05,30.45Z"/>
  <path id="_star-4_" data-name="&amp;lt;star-4&amp;gt;" class="cls-1" d="M361.56,54.6l7.04,70.78c1.97,19.82,13.57,37.39,31.01,47l62.3,34.33c43.92,24.2,41.02,88.26-4.9,108.4l-65.14,28.57c-18.24,8-31.37,24.46-35.12,44.01l-13.4,69.85c-9.44,49.25-71.26,66.29-104.61,28.84l-47.3-53.12c-13.24-14.87-32.95-22.28-52.71-19.8l-70.58,8.85c-49.76,6.24-85.06-47.29-59.75-90.58l35.91-61.4c10.05-17.19,11-38.22,2.54-56.25l-30.22-64.39C-4.67,104.28,35.33,54.16,84.32,64.86l69.49,15.18c19.45,4.25,39.75-1.35,54.28-14.96l51.9-48.64c36.59-34.29,96.61-11.74,101.58,38.16Z"/>
  <path id="_star-1_" data-name="&amp;lt;star-1&amp;gt;" class="cls-4" d="M886.73,148.84l5.13,45.24c1.44,12.67,9.16,23.97,20.66,30.24l41.07,22.37c28.95,15.77,27.52,56.65-2.42,69.17l-42.47,17.76c-11.89,4.97-20.37,15.38-22.69,27.84l-8.27,44.5c-5.83,31.37-46.2,41.8-68.33,17.65l-31.38-34.26c-8.78-9.59-21.75-14.46-34.68-13.03l-46.18,5.13c-32.55,3.62-56.08-30.81-39.81-58.27l23.08-38.94c6.46-10.9,6.93-24.32,1.25-35.89l-20.27-41.33c-14.29-29.14,11.55-60.85,43.72-53.66l45.64,10.2c12.78,2.86,26.04-.57,35.46-9.16l33.65-30.67c23.72-21.63,63.21-6.79,66.83,25.1Z"/>
  <path id="_star-3_" data-name="&amp;lt;star-3&amp;gt;" class="cls-2" d="M527.67,76.62l6.27,63.09c1.76,17.66,12.09,33.33,27.64,41.9l55.53,30.6c39.15,21.57,36.57,78.67-4.37,96.63l-58.07,25.46c-16.26,7.13-27.96,21.8-31.31,39.23l-11.94,62.27c-8.42,43.9-63.52,59.09-93.25,25.71l-42.16-47.36c-11.8-13.26-29.37-19.86-46.99-17.65l-62.91,7.89c-44.35,5.56-75.83-42.15-53.26-80.74l32.01-54.73c8.96-15.32,9.81-34.07,2.27-50.14l-26.94-57.4c-18.99-40.47,16.66-85.14,60.33-75.61l61.94,13.53c17.34,3.79,35.44-1.2,48.39-13.34l46.26-43.36c32.62-30.57,86.12-10.47,90.55,34.01Z"/>
</svg>