<?xml version="1.0" encoding="UTF-8"?>
<svg id="three-stars" xmlns="http://www.w3.org/2000/svg" viewBox="0 0 1137.63 477.07">
  <defs>
    <style>
      .cls-1 {
        fill: #f7ceaf;
      }

      .cls-1, .cls-2, .cls-3, .cls-4, .cls-5, .cls-6 {
        stroke-width: 0px;
      }

      .cls-2 {
        fill: #8f4c29;
      }

      .cls-3 {
        fill: #6a3d0c;
      }

      .cls-4 {
        fill: #b78456;
      }

      .cls-5 {
        fill: #421f0c;
      }

      .cls-6 {
        fill: #e5cec9;
      }
    </style>
  </defs>
  <g id="_large-star_" data-name="&amp;lt;large-star&amp;gt;">
    <path id="_star-4_" data-name="&amp;lt;star-4&amp;gt;" class="cls-2" d="M685.34,325.32l30.9-59.36c8.65-16.62,8.57-36.43-.21-52.97l-31.38-59.11c-22.12-41.67,13.14-90.62,59.67-82.83l66,11.05c18.48,3.09,37.29-3.11,50.32-16.57l46.52-48.11c32.79-33.92,90.24-15.51,97.22,31.15l9.89,66.18c2.77,18.53,14.48,34.51,31.31,42.73l60.13,29.37c42.39,20.71,42.63,81.03.41,102.08l-59.89,29.86c-16.77,8.36-28.35,24.43-30.96,42.98l-9.36,66.26c-6.6,46.71-63.89,65.59-96.96,31.94l-46.9-47.73c-13.13-13.36-32-19.41-50.45-16.17l-65.91,11.58c-46.47,8.16-82.12-40.5-60.34-82.35Z"/>
    <path id="_star-3_" data-name="&amp;lt;star-3&amp;gt;" class="cls-4" d="M709.04,315.4l27.55-52.91c7.71-14.81,7.64-32.47-.19-47.22l-27.97-52.69c-19.72-37.15,11.71-80.78,53.19-73.84l58.83,9.85c16.47,2.76,33.24-2.77,44.85-14.77l41.47-42.88c29.23-30.23,80.44-13.82,86.66,27.77l8.82,59c2.47,16.52,12.91,30.76,27.91,38.09l53.6,26.18c37.79,18.46,38,72.24.37,91l-53.39,26.62c-14.95,7.45-25.27,21.78-27.6,38.32l-8.34,59.07c-5.88,41.64-56.96,58.47-86.43,28.47l-41.81-42.55c-11.71-11.91-28.52-17.3-44.97-14.41l-58.75,10.32c-41.42,7.28-73.21-36.1-53.79-73.41Z"/>
  </g>
  <g id="_medium-star_" data-name="&amp;lt;medium-star&amp;gt;">
    <path id="_star-2_" data-name="&amp;lt;star-2&amp;gt;" class="cls-5" d="M330.64,300.82l23.35-46.41c6.54-12.99,6.22-28.61-.85-41.78l-25.25-47.01c-17.8-33.14,9.09-71.29,45.5-64.55l51.65,9.56c14.46,2.68,29.06-1.97,39.05-12.42l35.68-37.34c25.16-26.32,70.23-11.07,76.27,25.82l8.57,52.32c2.4,14.65,11.74,27.4,24.98,34.1l47.3,23.94c33.35,16.87,34.31,64.45,1.63,80.5l-46.35,22.77c-12.98,6.38-21.81,18.9-23.61,33.5l-6.45,52.13c-4.55,36.75-49.02,50.9-75.26,23.94l-37.22-38.24c-10.42-10.71-25.22-15.72-39.58-13.4l-51.29,8.28c-36.16,5.84-64.61-32.99-48.15-65.71Z"/>
    <path id="_star-1_" data-name="&amp;lt;star-1&amp;gt;" class="cls-6" d="M359.09,290.28l19.25-38.26c5.39-10.71,5.13-23.59-.7-34.44l-20.82-38.76c-14.68-27.33,7.5-58.78,37.52-53.22l42.59,7.88c11.92,2.21,23.96-1.62,32.2-10.24l29.42-30.78c20.74-21.7,57.9-9.12,62.89,21.29l7.07,43.14c1.98,12.08,9.68,22.59,20.6,28.11l39,19.73c27.5,13.91,28.29,53.14,1.35,66.38l-38.22,18.78c-10.7,5.26-17.98,15.58-19.47,27.62l-5.32,42.98c-3.75,30.3-40.42,41.97-62.05,19.74l-30.69-31.53c-8.59-8.83-20.79-12.96-32.63-11.05l-42.29,6.83c-29.81,4.81-53.27-27.2-39.7-54.18Z"/>
  </g>
  <g id="_small-star_" data-name="&amp;lt;small-star&amp;gt;">
    <path id="_star-2_-2" data-name="&amp;lt;star-2&amp;gt;" class="cls-3" d="M7.1,291.85l19.8-39.35c5.54-11.02,5.27-24.26-.72-35.42l-21.41-39.86c-15.09-28.1,7.71-60.45,38.58-54.73l43.8,8.11c12.26,2.27,24.64-1.67,33.12-10.53l30.26-31.66c21.33-22.32,59.55-9.38,64.67,21.89l7.27,44.36c2.03,12.42,9.96,23.23,21.18,28.91l40.11,20.3c28.28,14.31,29.1,54.65,1.38,68.26l-39.3,19.31c-11,5.41-18.49,16.03-20.02,28.4l-5.47,44.2c-3.86,31.16-41.57,43.16-63.81,20.3l-31.56-32.42c-8.83-9.08-21.38-13.33-33.56-11.36l-43.49,7.02c-30.66,4.95-54.78-27.97-40.82-55.72Z"/>
    <path id="_star-1_-2" data-name="&amp;lt;star-1&amp;gt;" class="cls-1" d="M31.22,282.9l16.33-32.45c4.57-9.08,4.35-20.01-.59-29.21l-17.65-32.87c-12.44-23.17,6.36-49.84,31.81-45.13l36.11,6.68c10.11,1.87,20.32-1.38,27.3-8.68l24.95-26.1c17.59-18.4,49.1-7.74,53.32,18.05l5.99,36.58c1.68,10.24,8.21,19.15,17.47,23.84l33.07,16.73c23.31,11.8,23.99,45.06,1.14,56.28l-32.41,15.92c-9.07,4.46-15.25,13.21-16.51,23.42l-4.51,36.45c-3.18,25.69-34.27,35.58-52.62,16.74l-26.02-26.74c-7.28-7.48-17.63-10.99-27.67-9.37l-35.86,5.79c-25.28,4.08-45.17-23.07-33.66-45.94Z"/>
  </g>
</svg>