<?xml version="1.0" encoding="UTF-8"?>
<svg id="three-stars" xmlns="http://www.w3.org/2000/svg" viewBox="0 0 13465.51 689.84">
  <defs>
    <style>
      .cls-1 {
        letter-spacing: 0em;
      }

      .cls-2 {
        letter-spacing: .01em;
      }

      .cls-3 {
        letter-spacing: .01em;
      }

      .cls-4 {
        letter-spacing: 0em;
      }

      .cls-5 {
        letter-spacing: .02em;
      }

      .cls-6 {
        letter-spacing: 0em;
      }

      .cls-7 {
        letter-spacing: .02em;
      }

      .cls-8 {
        letter-spacing: .02em;
      }

      .cls-9 {
        letter-spacing: -.07em;
      }

      .cls-10 {
        letter-spacing: 0em;
      }

      .cls-11 {
        letter-spacing: -.04em;
      }

      .cls-12 {
        font-family: MyriadPro-Regular, 'Myriad Pro';
        font-size: 12px;
      }

      .cls-13 {
        letter-spacing: 0em;
      }

      .cls-14 {
        letter-spacing: 0em;
      }

      .cls-15 {
        letter-spacing: -.04em;
      }

      .cls-16 {
        letter-spacing: .02em;
      }

      .cls-17 {
        fill: #f7ceaf;
      }

      .cls-17, .cls-18, .cls-19, .cls-20, .cls-21, .cls-22 {
        stroke-width: 0px;
      }

      .cls-23 {
        letter-spacing: 0em;
      }

      .cls-24 {
        letter-spacing: -.01em;
      }

      .cls-25 {
        letter-spacing: .03em;
      }

      .cls-26 {
        letter-spacing: 0em;
      }

      .cls-18 {
        fill: #8f4c29;
      }

      .cls-27 {
        letter-spacing: 0em;
      }

      .cls-28 {
        letter-spacing: 0em;
      }

      .cls-29 {
        letter-spacing: 0em;
      }

      .cls-30 {
        letter-spacing: .03em;
      }

      .cls-19 {
        fill: #6a3d0c;
      }

      .cls-31 {
        letter-spacing: 0em;
      }

      .cls-32 {
        letter-spacing: 0em;
      }

      .cls-33 {
        letter-spacing: -.04em;
      }

      .cls-34 {
        letter-spacing: 0em;
      }

      .cls-20 {
        fill: #b78456;
      }

      .cls-35 {
        letter-spacing: 0em;
      }

      .cls-36 {
        letter-spacing: -.02em;
      }

      .cls-37 {
        letter-spacing: .01em;
      }

      .cls-38 {
        letter-spacing: -.01em;
      }

      .cls-39 {
        letter-spacing: -.01em;
      }

      .cls-21 {
        fill: #421f0c;
      }

      .cls-22 {
        fill: #e5cec9;
      }

      .cls-40 {
        letter-spacing: 0em;
      }

      .cls-41 {
        letter-spacing: -.07em;
      }

      .cls-42 {
        letter-spacing: 0em;
      }

      .cls-43 {
        letter-spacing: 0em;
      }
    </style>
  </defs>
  <text class="cls-12" transform="translate(0 10.04)"><tspan x="0" y="0">&lt;!DO</tspan><tspan class="cls-30" x="26.17" y="0">CT</tspan><tspan class="cls-29" x="39.77" y="0">Y</tspan><tspan x="46.18" y="0">PE </tspan><tspan class="cls-13" x="61.01" y="0">h</tspan><tspan x="67.62" y="0">tml&gt;</tspan><tspan x="0" y="14.4">&lt;</tspan><tspan class="cls-14" x="7.15" y="14.4">h</tspan><tspan x="13.76" y="14.4">tml lang=</tspan><tspan class="cls-43" x="62.25" y="14.4">&quot;</tspan><tspan x="66.2" y="14.4">e</tspan><tspan class="cls-29" x="72.21" y="14.4">n</tspan><tspan x="78.79" y="14.4">&quot;&gt;</tspan><tspan x="0" y="28.8" xml:space="preserve">    &lt;head&gt;</tspan><tspan x="0" y="43.2" xml:space="preserve">        &lt;meta charset=&quot;UTF-8&quot;&gt;</tspan><tspan x="0" y="57.6" xml:space="preserve">        &lt;meta name=</tspan><tspan class="cls-8" x="91.44" y="57.6">&quot;</tspan><tspan x="95.73" y="57.6">viewpo</tspan><tspan class="cls-7" x="132.57" y="57.6">r</tspan><tspan x="136.79" y="57.6">t&quot; </tspan><tspan class="cls-10" x="147.34" y="57.6">c</tspan><tspan x="152.65" y="57.6">o</tspan><tspan class="cls-14" x="159.24" y="57.6">n</tspan><tspan class="cls-10" x="165.85" y="57.6">t</tspan><tspan x="169.75" y="57.6">e</tspan><tspan class="cls-13" x="175.76" y="57.6">n</tspan><tspan x="182.37" y="57.6">t=</tspan><tspan class="cls-8" x="193.5" y="57.6">&quot;</tspan><tspan x="197.79" y="57.6">width=devi</tspan><tspan class="cls-34" x="255.34" y="57.6">c</tspan><tspan class="cls-30" x="260.65" y="57.6">e</tspan><tspan class="cls-40" x="267" y="57.6">-</tspan><tspan x="270.62" y="57.6">width, initial-scale=1.0&quot;&gt;</tspan><tspan x="0" y="72" xml:space="preserve">        &lt;title&gt;</tspan><tspan class="cls-36" x="54.25" y="72">P</tspan><tspan class="cls-39" x="60.44" y="72">r</tspan><tspan class="cls-27" x="64.25" y="72">oje</tspan><tspan class="cls-2" x="79.76" y="72">c</tspan><tspan x="85.29" y="72">t</tspan><tspan class="cls-15" x="89.27" y="72"> </tspan><tspan class="cls-9" x="91.32" y="72">T</tspan><tspan class="cls-27" x="96.43" y="72">empl</tspan><tspan class="cls-13" x="122.11" y="72">a</tspan><tspan class="cls-10" x="127.85" y="72">t</tspan><tspan x="131.75" y="72">e&lt;/title&gt;</tspan><tspan x="0" y="86.4" xml:space="preserve">        &lt;link h</tspan><tspan class="cls-39" x="54.63" y="86.4">r</tspan><tspan x="58.44" y="86.4">ef=</tspan><tspan class="cls-42" x="75.11" y="86.4">&quot;</tspan><tspan x="79.05" y="86.4">css/main.css&quot; </tspan><tspan class="cls-31" x="147.26" y="86.4">r</tspan><tspan x="151.07" y="86.4">el=&quot;s</tspan><tspan class="cls-4" x="175.86" y="86.4">t</tspan><tspan class="cls-32" x="179.94" y="86.4" xml:space="preserve">ylesheet&quot;&gt;        </tspan><tspan x="0" y="100.8" xml:space="preserve">    &lt;/head&gt;</tspan><tspan x="0" y="115.2" xml:space="preserve">    &lt;body&gt;</tspan><tspan x="0" y="129.6" xml:space="preserve">        &lt;h1&gt;</tspan><tspan class="cls-36" x="47.47" y="129.6">P</tspan><tspan class="cls-39" x="53.66" y="129.6">r</tspan><tspan x="57.47" y="129.6">oje</tspan><tspan class="cls-37" x="72.98" y="129.6">c</tspan><tspan x="78.51" y="129.6">t</tspan><tspan class="cls-33" x="82.49" y="129.6"> </tspan><tspan class="cls-41" x="84.54" y="129.6">T</tspan><tspan x="89.65" y="129.6">empl</tspan><tspan class="cls-14" x="115.33" y="129.6">a</tspan><tspan class="cls-10" x="121.07" y="129.6">t</tspan><tspan x="124.97" y="129.6">e&lt;/h1&gt;</tspan><tspan x="0" y="144" xml:space="preserve">        &lt;!-- link just ab</tspan><tspan class="cls-29" x="94.05" y="144">o</tspan><tspan class="cls-31" x="100.56" y="144">v</tspan><tspan x="106.21" y="144">e the closing body tag</tspan><tspan x="0" y="158.4" xml:space="preserve">        this all</tspan><tspan class="cls-29" x="52.53" y="158.4">o</tspan><tspan class="cls-10" x="59.04" y="158.4">w</tspan><tspan x="67.8" y="158.4">s </tspan><tspan class="cls-38" x="75.09" y="158.4">f</tspan><tspan x="78.44" y="158.4">or the e</tspan><tspan class="cls-13" x="116.7" y="158.4">n</tspan><tspan x="123.31" y="158.4">ti</tspan><tspan class="cls-39" x="130.09" y="158.4">r</tspan><tspan x="133.89" y="158.4">e DOM t</tspan><tspan class="cls-39" x="174.87" y="158.4">r</tspan><tspan x="178.68" y="158.4">ee </tspan><tspan class="cls-10" x="193.24" y="158.4">t</tspan><tspan x="197.14" y="158.4">o be built --&gt;</tspan><tspan x="0" y="172.8" xml:space="preserve">        &lt;!-- &lt;img s</tspan><tspan class="cls-39" x="74.15" y="172.8">r</tspan><tspan x="77.95" y="172.8">c=&quot;images/JPG_G</tspan><tspan class="cls-40" x="167.04" y="172.8">r</tspan><tspan x="170.9" y="172.8">aphi</tspan><tspan class="cls-31" x="192.98" y="172.8">c</tspan><tspan x="198.24" y="172.8">.jpg&quot; width=&quot;200&quot; heig</tspan><tspan class="cls-13" x="311.24" y="172.8">h</tspan><tspan x="317.85" y="172.8">t=&quot;200&quot;&gt;</tspan><tspan x="0" y="187.2" xml:space="preserve">        &lt;img s</tspan><tspan class="cls-31" x="54.32" y="187.2">r</tspan><tspan x="58.13" y="187.2">c=&quot;images/SVG_G</tspan><tspan class="cls-40" x="149" y="187.2">r</tspan><tspan class="cls-32" x="152.87" y="187.2">aphi</tspan><tspan class="cls-39" x="174.95" y="187.2">c</tspan><tspan class="cls-27" x="180.2" y="187.2">.s</tspan><tspan class="cls-39" x="187.44" y="187.2">v</tspan><tspan x="193.09" y="187.2">g&quot; width=&quot;200&quot; heig</tspan><tspan class="cls-14" x="293.86" y="187.2">h</tspan><tspan class="cls-27" x="300.47" y="187.2">t=&quot;200&quot;&gt; --&gt;</tspan><tspan x="0" y="201.6" xml:space="preserve">        &lt;?xml </tspan><tspan class="cls-31" x="53.31" y="201.6">v</tspan><tspan x="58.97" y="201.6">ersion=&quot;1.0&quot; en</tspan><tspan class="cls-34" x="134.96" y="201.6">c</tspan><tspan x="140.26" y="201.6">oding=&quot;UTF-8&quot;?&gt;</tspan><tspan x="0" y="216">&lt;s</tspan><tspan class="cls-39" x="11.9" y="216">v</tspan><tspan x="17.56" y="216">g id=&quot;badge&quot; xmlns=&quot;</tspan><tspan class="cls-13" x="127.27" y="216">h</tspan><tspan x="133.88" y="216">ttp://</tspan><tspan class="cls-3" x="159.37" y="216">ww</tspan><tspan class="cls-11" x="177.32" y="216">w</tspan><tspan class="cls-27" x="185.68" y="216">.w3.o</tspan><tspan class="cls-43" x="212.23" y="216">r</tspan><tspan class="cls-32" x="216.06" y="216">g/2000/s</tspan><tspan class="cls-31" x="260.37" y="216">v</tspan><tspan class="cls-32" x="266.02" y="216">g&quot; view</tspan><tspan class="cls-35" x="302.74" y="216">B</tspan><tspan class="cls-24" x="309.29" y="216">o</tspan><tspan class="cls-27" x="315.71" y="216">x=&quot;0 0 166.69 167.01&quot;&gt;</tspan><tspan x="0" y="230.4" xml:space="preserve">  &lt;de</tspan><tspan class="cls-26" x="25.02" y="230.4">f</tspan><tspan x="28.42" y="230.4">s&gt;</tspan><tspan x="0" y="244.8" xml:space="preserve">    &lt;s</tspan><tspan class="cls-4" x="22.08" y="244.8">t</tspan><tspan x="26.16" y="244.8">yle&gt;</tspan><tspan x="0" y="259.2" xml:space="preserve">      .cls-1 {</tspan><tspan x="0" y="273.6" xml:space="preserve">        fill: #ff</tspan><tspan class="cls-25" x="50.28" y="273.6">f</tspan><tspan class="cls-27" x="54.17" y="273.6">;</tspan><tspan x="0" y="288" xml:space="preserve">      }</tspan><tspan x="0" y="316.8" xml:space="preserve">      .cls-2 {</tspan><tspan x="0" y="331.2" xml:space="preserve">        fill: </tspan><tspan class="cls-31" x="37.32" y="331.2">r</tspan><tspan x="41.12" y="331.2">ed;</tspan><tspan x="0" y="345.6" xml:space="preserve">      }</tspan><tspan x="0" y="374.4" xml:space="preserve">      .cls-3 {</tspan><tspan x="0" y="388.8" xml:space="preserve">        fill: #999;</tspan><tspan x="0" y="403.2" xml:space="preserve">      }</tspan><tspan x="0" y="432" xml:space="preserve">      .cls-4 {</tspan><tspan x="0" y="446.4" xml:space="preserve">        st</tspan><tspan class="cls-39" x="29.08" y="446.4">r</tspan><tspan x="32.88" y="446.4">ok</tspan><tspan class="cls-30" x="45.09" y="446.4">e</tspan><tspan class="cls-16" x="51.44" y="446.4">-</tspan><tspan x="55.34" y="446.4">dasha</tspan><tspan class="cls-6" x="85.09" y="446.4">r</tspan><tspan class="cls-23" x="89.06" y="446.4">r</tspan><tspan class="cls-43" x="92.93" y="446.4">a</tspan><tspan class="cls-5" x="98.61" y="446.4">y</tspan><tspan class="cls-27" x="104.55" y="446.4">: 0 0 .86 .86;</tspan><tspan x="0" y="460.8" xml:space="preserve">      }</tspan><tspan x="0" y="489.6" xml:space="preserve">      .cls-4, .cls-5 {</tspan><tspan x="0" y="504" xml:space="preserve">        fill: none;</tspan><tspan x="0" y="518.4" xml:space="preserve">        st</tspan><tspan class="cls-39" x="29.08" y="518.4">r</tspan><tspan x="32.88" y="518.4">oke: #ff</tspan><tspan class="cls-25" x="69.09" y="518.4">f</tspan><tspan x="72.98" y="518.4">;</tspan><tspan x="0" y="532.8" xml:space="preserve">        st</tspan><tspan class="cls-39" x="29.08" y="532.8">r</tspan><tspan x="32.88" y="532.8">ok</tspan><tspan class="cls-30" x="45.09" y="532.8">e</tspan><tspan class="cls-27" x="51.44" y="532.8">-mi</tspan><tspan class="cls-10" x="67.94" y="532.8">t</tspan><tspan x="71.84" y="532.8">e</tspan><tspan class="cls-35" x="77.85" y="532.8">r</tspan><tspan x="81.83" y="532.8">limit: 10;</tspan><tspan x="0" y="547.2" xml:space="preserve">        st</tspan><tspan class="cls-39" x="29.08" y="547.2">r</tspan><tspan x="32.88" y="547.2">ok</tspan><tspan class="cls-30" x="45.09" y="547.2">e</tspan><tspan class="cls-40" x="51.44" y="547.2">-</tspan><tspan x="55.07" y="547.2">width: .5</tspan><tspan class="cls-24" x="97.77" y="547.2">p</tspan><tspan x="104.43" y="547.2">x;</tspan><tspan x="0" y="561.6" xml:space="preserve">      }</tspan><tspan x="0" y="590.4" xml:space="preserve">      .cls-5, .cls-6 {</tspan><tspan x="0" y="604.8" xml:space="preserve">        opaci</tspan><tspan class="cls-4" x="47.73" y="604.8">t</tspan><tspan class="cls-5" x="51.81" y="604.8">y</tspan><tspan class="cls-27" x="57.75" y="604.8">: .7;</tspan><tspan x="0" y="619.2" xml:space="preserve">      }</tspan><tspan x="0" y="633.6" xml:space="preserve">    &lt;/s</tspan><tspan class="cls-4" x="26.2" y="633.6">t</tspan><tspan class="cls-32" x="30.28" y="633.6">yle&gt;</tspan><tspan x="0" y="648" xml:space="preserve">  &lt;/de</tspan><tspan class="cls-1" x="29.14" y="648">f</tspan><tspan x="32.53" y="648">s&gt;</tspan><tspan x="0" y="662.4" xml:space="preserve">  &lt;p</tspan><tspan class="cls-13" x="19.07" y="662.4">a</tspan><tspan x="24.8" y="662.4">th id=&quot;bgci</tspan><tspan class="cls-39" x="80.47" y="662.4">r</tspan><tspan x="84.27" y="662.4">cle&quot; d=</tspan><tspan class="cls-40" x="119" y="662.4">&quot;</tspan><tspan x="122.99" y="662.4">M80.91,1.81c1.34-2.41,3.53-2.41,4.87,0,1.34,2.41,3.76,2.56,5.39,.34,1.63-2.22,3.8-1.95,4.83,.61,1.02,2.56,3.41,3.01,5.31,1.01,1.9-2,4.01-1.46,4.71,1.21,.7,2.67,3.01,3.42,5.14,1.67,2.13-1.75,4.16-.94,4.52,1.79,.36,2.73,2.56,3.77,4.89,2.3,2.33-1.47,4.25-.41,4.26,2.34,.01,2.76,2.07,4.06,4.56,2.9,2.5-1.16,4.27,.12,3.93,2.86-.33,2.74,1.54,4.29,4.17,3.44,2.62-.84,4.22,.66,3.54,3.33-.67,2.67,.99,4.45,3.7,3.94,2.71-.5,4.1,1.18,3.1,3.75-1,2.57,.43,4.53,3.18,4.37,2.75-.16,3.92,1.69,2.61,4.11-1.32,2.42-.15,4.55,2.6,4.74,2.75,.18,3.68,2.17,2.07,4.4-1.61,2.24-.72,4.5,1.99,5.03,2.7,.53,3.38,2.61,1.5,4.63-1.88,2.02-1.27,4.37,1.34,5.23,2.62,.86,3.03,3.01,.91,4.78-2.12,1.77-1.81,4.18,.68,5.36,2.49,1.18,2.63,3.37,.31,4.85-2.32,1.49-2.32,3.92,0,5.41,2.32,1.49,2.18,3.67-.31,4.85-2.49,1.18-2.79,3.6-.68,5.36,2.12,1.77,1.71,3.91-.91,4.78-2.62,.86-3.22,3.22-1.34,5.23,1.88,2.02,1.2,4.1-1.5,4.63-2.7,.53-3.6,2.79-1.99,5.03,1.61,2.24,.68,4.22-2.07,4.4-2.75,.18-3.92,2.32-2.6,4.74,1.32,2.42,.14,4.27-2.61,4.11-2.75-.16-4.18,1.81-3.18,4.37,1,2.57-.39,4.25-3.1,3.75-2.71-.51-4.37,1.27-3.7,3.94,.67,2.67-.92,4.17-3.54,3.33-2.62-.84-4.5,.71-4.17,3.44,.33,2.74-1.44,4.02-3.93,2.86-2.5-1.16-4.55,.14-4.56,2.9-.01,2.76-1.93,3.81-4.26,2.34-2.33-1.47-4.53-.43-4.89,2.3-.36,2.73-2.39,3.54-4.52,1.79-2.13-1.75-4.45-1-5.14,1.67-.7,2.67-2.81,3.21-4.71,1.21-1.9-2-4.28-1.54-5.31,1.01-1.03,2.56-3.2,2.83-4.83,.61-1.63-2.22-4.06-2.07-5.39,.34-1.34,2.41-3.53,2.41-4.87,0-1.34-2.41-3.77-2.56-5.39-.34-1.63,2.22-3.8,1.95-4.83-.61-1.02-2.56-3.41-3.01-5.31-1.01-1.89,2-4.01,1.46-4.71-1.21-.7-2.67-3.01-3.42-5.14-1.67-2.13,1.75-4.16,.94-4.52-1.79-.36-2.73-2.56-3.77-4.89-2.3-2.33,1.47-4.25,.41-4.26-2.34-.01-2.76-2.06-4.06-4.56-2.9-2.5,1.16-4.27-.12-3.94-2.86,.33-2.74-1.54-4.29-4.17-3.44-2.62,.84-4.22-.66-3.55-3.33,.67-2.67-.99-4.45-3.7-3.94-2.71,.5-4.1-1.18-3.1-3.75,1-2.57-.43-4.53-3.18-4.37-2.75,.16-3.92-1.69-2.61-4.11,1.32-2.42,.15-4.55-2.6-4.74-2.75-.18-3.68-2.16-2.07-4.4,1.61-2.24,.72-4.5-1.99-5.03-2.71-.53-3.38-2.61-1.5-4.63,1.88-2.02,1.27-4.37-1.35-5.23-2.62-.86-3.03-3.01-.91-4.78,2.12-1.77,1.81-4.18-.68-5.36-2.49-1.18-2.62-3.37-.31-4.85,2.32-1.49,2.32-3.92,0-5.41-2.32-1.49-2.18-3.67,.31-4.85,2.49-1.18,2.79-3.6,.68-5.36-2.12-1.77-1.71-3.91,.91-4.78,2.62-.86,3.22-3.22,1.35-5.23-1.88-2.02-1.2-4.1,1.5-4.63,2.71-.53,3.6-2.79,1.99-5.03-1.61-2.24-.68-4.22,2.07-4.4,2.75-.18,3.92-2.32,2.6-4.74-1.32-2.42-.14-4.27,2.61-4.11,2.75,.16,4.18-1.81,3.18-4.37-1-2.57,.39-4.25,3.1-3.75,2.71,.51,4.37-1.27,3.7-3.94-.67-2.67,.92-4.17,3.55-3.33,2.63,.84,4.5-.71,4.17-3.45-.33-2.74,1.44-4.02,3.94-2.86,2.5,1.16,4.55-.14,4.56-2.9,.01-2.76,1.93-3.81,4.26-2.34,2.33,1.47,4.53,.43,4.89-2.3,.36-2.73,2.39-3.54,4.52-1.79,2.13,1.75,4.44,1,5.14-1.67,.7-2.67,2.82-3.21,4.71-1.21,1.9,2,4.28,1.54,5.31-1.01,1.03-2.56,3.2-2.83,4.83-.61,1.63,2.22,4.06,2.07,5.39-.34Z&quot;/&gt;</tspan><tspan x="0" y="676.8" xml:space="preserve">  &lt;g id=</tspan><tspan class="cls-31" x="38.22" y="676.8">&quot;</tspan><tspan class="cls-34" x="42.14" y="676.8">g</tspan><tspan class="cls-39" x="48.78" y="676.8">r</tspan><tspan x="52.58" y="676.8">ey</tspan><tspan class="cls-34" x="64.25" y="676.8">t</tspan><tspan class="cls-28" x="68.15" y="676.8">e</tspan><tspan class="cls-37" x="74.12" y="676.8">x</tspan><tspan x="79.83" y="676.8">t&quot;&gt;</tspan></text>
  <g id="_large-star_" data-name="&amp;lt;large-star&amp;gt;">
    <path id="_star-4_" data-name="&amp;lt;star-4&amp;gt;" class="cls-18" d="M6867.48,424.44l28.71-54.84c8.04-15.35,8.01-33.68-.08-49l-28.9-54.74c-20.37-38.59,12.35-83.79,55.37-76.49l61.03,10.36c17.08,2.9,34.5-2.79,46.58-15.22l43.13-44.4c30.41-31.3,83.51-14.15,89.86,29.03l9.01,61.24c2.52,17.14,13.32,31.95,28.87,39.59l55.55,27.3c39.17,19.25,39.26,75.05.16,94.43l-55.46,27.49c-15.53,7.7-26.27,22.54-28.73,39.69l-8.8,61.27c-6.2,43.2-59.24,60.53-89.76,29.33l-43.28-44.25c-12.12-12.39-29.55-18.02-46.63-15.06l-60.99,10.57c-43,7.45-75.87-37.64-55.63-76.3Z"/>
    <path id="_star-3_" data-name="&amp;lt;star-3&amp;gt;" class="cls-20" d="M6889.43,415.32l25.59-48.88c7.16-13.69,7.14-30.02-.07-43.68l-25.76-48.8c-18.16-34.4,11.01-74.69,49.36-68.18l54.4,9.23c15.23,2.59,30.76-2.49,41.52-13.57l38.45-39.58c27.11-27.9,74.44-12.61,80.1,25.87l8.03,54.59c2.25,15.28,11.87,28.48,25.74,35.29l49.52,24.33c34.91,17.16,35,66.9.14,84.18l-49.44,24.5c-13.84,6.86-23.42,20.09-25.61,35.38l-7.84,54.62c-5.53,38.51-52.81,53.96-80.01,26.15l-38.58-39.45c-10.8-11.04-26.35-16.06-41.57-13.43l-54.37,9.42c-38.33,6.64-67.64-33.55-49.59-68.01Z"/>
  </g>
  <g id="_medium-star_" data-name="&amp;lt;medium-star&amp;gt;">
    <path id="_star-2_" data-name="&amp;lt;star-2&amp;gt;" class="cls-21" d="M6539.45,401.02l21.7-42.88c6.08-12,5.82-26.45-.69-38.64l-23.25-43.54c-16.39-30.69,8.56-65.92,42.23-59.61l47.76,8.95c13.37,2.51,26.89-1.76,36.15-11.41l33.09-34.46c23.33-24.29,64.98-10.09,70.49,24.04l7.81,48.41c2.19,13.55,10.8,25.37,23.04,31.59l43.7,22.24c30.81,15.68,31.6,59.69,1.34,74.47l-42.93,20.97c-12.02,5.87-20.21,17.44-21.91,30.93l-6.08,48.21c-4.28,33.98-45.45,46.97-69.67,21.98l-34.34-35.45c-9.61-9.92-23.29-14.59-36.58-12.48l-47.46,7.55c-33.46,5.32-59.69-30.65-44.39-60.88Z"/>
    <path id="_star-1_" data-name="&amp;lt;star-1&amp;gt;" class="cls-22" d="M6565.78,391.33l17.89-35.35c5.01-9.9,4.79-21.81-.57-31.86l-19.17-35.9c-13.52-25.31,7.06-54.35,34.82-49.15l39.37,7.38c11.02,2.07,22.17-1.45,29.81-9.4l27.28-28.41c19.23-20.03,53.58-8.32,58.12,19.82l6.44,39.91c1.8,11.17,8.91,20.92,18.99,26.05l36.03,18.34c25.4,12.93,26.06,49.21,1.1,61.4l-35.39,17.29c-9.91,4.84-16.67,14.38-18.07,25.5l-5.01,39.75c-3.53,28.02-37.48,38.73-57.44,18.12l-28.32-29.23c-7.93-8.18-19.21-12.03-30.16-10.29l-39.13,6.23c-27.59,4.39-49.22-25.28-36.6-50.2Z"/>
  </g>
  <g id="_small-star_" data-name="&amp;lt;small-star&amp;gt;">
    <path id="_star-2_-2" data-name="&amp;lt;star-2&amp;gt;" class="cls-19" d="M6240.2,392.03l18.4-36.36c5.15-10.18,4.93-22.43-.59-32.77l-19.72-36.92c-13.9-26.03,7.26-55.9,35.81-50.54l40.49,7.59c11.34,2.13,22.8-1.49,30.65-9.67l28.06-29.22c19.78-20.6,55.1-8.55,59.77,20.39l6.63,41.05c1.85,11.49,9.16,21.51,19.53,26.79l37.06,18.86c26.12,13.3,26.8,50.61,1.13,63.14l-36.4,17.78c-10.19,4.98-17.14,14.79-18.58,26.23l-5.15,40.87c-3.63,28.82-38.54,39.83-59.07,18.64l-29.12-30.06c-8.15-8.42-19.75-12.37-31.02-10.58l-40.24,6.4c-28.37,4.51-50.62-25.99-37.64-51.62Z"/>
    <path id="_star-1_-2" data-name="&amp;lt;star-1&amp;gt;" class="cls-17" d="M6262.52,383.8l15.17-29.98c4.25-8.39,4.07-18.5-.49-27.02l-16.26-30.44c-11.46-21.46,5.99-46.09,29.52-41.67l33.39,6.26c9.35,1.75,18.8-1.23,25.27-7.97l23.13-24.09c16.31-16.98,45.43-7.05,49.28,16.81l5.46,33.84c1.53,9.48,7.55,17.74,16.11,22.09l30.55,15.55c21.54,10.96,22.09,41.73.94,52.06l-30.01,14.66c-8.4,4.1-14.13,12.19-15.32,21.63l-4.25,33.7c-3,23.76-31.78,32.84-48.71,15.37l-24.01-24.79c-6.72-6.94-16.29-10.2-25.57-8.72l-33.18,5.28c-23.39,3.72-41.73-21.43-31.04-42.57Z"/>
  </g>
</svg>